<mxfile host="app.diagrams.net" agent="Mozilla/5.0 (Windows NT 10.0; Win64; x64) AppleWebKit/537.36 (KHTML, like Gecko) Chrome/135.0.0.0 Safari/537.36" version="28.2.3">
  <diagram name="Page-1" id="bCQ_t_cRNoPyhIz6i8bi">
    <mxGraphModel dx="1358" dy="698" grid="1" gridSize="10" guides="1" tooltips="1" connect="1" arrows="1" fold="1" page="1" pageScale="1" pageWidth="1400" pageHeight="850" math="0" shadow="0">
      <root>
        <mxCell id="0" />
        <mxCell id="1" parent="0" />
        <mxCell id="-yWKr1vlHTwKiEqfa3xT-14" value="" style="rounded=0;whiteSpace=wrap;html=1;" vertex="1" parent="1">
          <mxGeometry x="660" y="275" width="120" height="60" as="geometry" />
        </mxCell>
        <mxCell id="-yWKr1vlHTwKiEqfa3xT-12" value="&lt;font style=&quot;font-size: 15px;&quot;&gt;Borrowing&lt;/font&gt;" style="rounded=0;whiteSpace=wrap;html=1;shape=rhombus;perimeter=rhombusPerimeter;" vertex="1" parent="1">
          <mxGeometry x="660" y="275" width="120" height="60" as="geometry" />
        </mxCell>
        <mxCell id="-yWKr1vlHTwKiEqfa3xT-16" value="" style="endArrow=none;html=1;rounded=0;" edge="1" parent="1">
          <mxGeometry width="50" height="50" relative="1" as="geometry">
            <mxPoint x="780" y="275" as="sourcePoint" />
            <mxPoint x="820" y="235" as="targetPoint" />
          </mxGeometry>
        </mxCell>
        <mxCell id="-yWKr1vlHTwKiEqfa3xT-17" value="" style="endArrow=none;html=1;rounded=0;" edge="1" parent="1">
          <mxGeometry width="50" height="50" relative="1" as="geometry">
            <mxPoint x="660" y="275" as="sourcePoint" />
            <mxPoint x="610" y="235" as="targetPoint" />
          </mxGeometry>
        </mxCell>
        <mxCell id="-yWKr1vlHTwKiEqfa3xT-18" value="&lt;font style=&quot;font-size: 15px;&quot;&gt;Date Barrowed&lt;/font&gt;" style="ellipse;whiteSpace=wrap;html=1;" vertex="1" parent="1">
          <mxGeometry x="770" y="155" width="120" height="80" as="geometry" />
        </mxCell>
        <mxCell id="-yWKr1vlHTwKiEqfa3xT-19" value="&lt;u&gt;&lt;font style=&quot;font-size: 15px;&quot;&gt;Barrow_ID&lt;/font&gt;&lt;/u&gt;" style="ellipse;whiteSpace=wrap;html=1;" vertex="1" parent="1">
          <mxGeometry x="560" y="155" width="120" height="80" as="geometry" />
        </mxCell>
        <mxCell id="-yWKr1vlHTwKiEqfa3xT-20" value="" style="endArrow=none;html=1;rounded=0;" edge="1" parent="1">
          <mxGeometry width="50" height="50" relative="1" as="geometry">
            <mxPoint x="620" y="375" as="sourcePoint" />
            <mxPoint x="660" y="335" as="targetPoint" />
          </mxGeometry>
        </mxCell>
        <mxCell id="-yWKr1vlHTwKiEqfa3xT-21" value="" style="endArrow=none;html=1;rounded=0;" edge="1" parent="1">
          <mxGeometry width="50" height="50" relative="1" as="geometry">
            <mxPoint x="810" y="375" as="sourcePoint" />
            <mxPoint x="780" y="335" as="targetPoint" />
          </mxGeometry>
        </mxCell>
        <mxCell id="-yWKr1vlHTwKiEqfa3xT-22" value="&lt;font style=&quot;font-size: 15px;&quot;&gt;DueDate&lt;/font&gt;" style="ellipse;whiteSpace=wrap;html=1;" vertex="1" parent="1">
          <mxGeometry x="550" y="365" width="120" height="80" as="geometry" />
        </mxCell>
        <mxCell id="-yWKr1vlHTwKiEqfa3xT-23" value="&lt;font style=&quot;font-size: 15px;&quot;&gt;Return Date&lt;/font&gt;" style="ellipse;whiteSpace=wrap;html=1;" vertex="1" parent="1">
          <mxGeometry x="770" y="365" width="120" height="80" as="geometry" />
        </mxCell>
        <mxCell id="-yWKr1vlHTwKiEqfa3xT-45" value="" style="edgeStyle=entityRelationEdgeStyle;fontSize=12;html=1;endArrow=ERzeroToMany;startArrow=ERmandOne;rounded=0;entryX=0;entryY=0.5;entryDx=0;entryDy=0;exitX=1;exitY=0.5;exitDx=0;exitDy=0;" edge="1" parent="1" source="-yWKr1vlHTwKiEqfa3xT-1" target="-yWKr1vlHTwKiEqfa3xT-12">
          <mxGeometry width="100" height="100" relative="1" as="geometry">
            <mxPoint x="300" y="305" as="sourcePoint" />
            <mxPoint x="400" y="205" as="targetPoint" />
            <Array as="points">
              <mxPoint x="-170" y="95" />
            </Array>
          </mxGeometry>
        </mxCell>
        <mxCell id="-yWKr1vlHTwKiEqfa3xT-57" value="" style="fontSize=12;html=1;endArrow=ERoneToMany;startArrow=ERmandOne;rounded=0;exitX=0.5;exitY=0;exitDx=0;exitDy=0;" edge="1" parent="1" source="-yWKr1vlHTwKiEqfa3xT-48">
          <mxGeometry width="100" height="100" relative="1" as="geometry">
            <mxPoint x="720" y="625" as="sourcePoint" />
            <mxPoint x="720" y="335" as="targetPoint" />
          </mxGeometry>
        </mxCell>
        <mxCell id="-yWKr1vlHTwKiEqfa3xT-59" value="" style="group" vertex="1" connectable="0" parent="1">
          <mxGeometry x="560" y="455" width="330" height="260" as="geometry" />
        </mxCell>
        <mxCell id="-yWKr1vlHTwKiEqfa3xT-48" value="&lt;font style=&quot;font-size: 15px;&quot;&gt;Librarian&lt;/font&gt;" style="rounded=0;whiteSpace=wrap;html=1;" vertex="1" parent="-yWKr1vlHTwKiEqfa3xT-59">
          <mxGeometry x="100" y="100" width="120" height="60" as="geometry" />
        </mxCell>
        <mxCell id="-yWKr1vlHTwKiEqfa3xT-49" value="" style="endArrow=none;html=1;rounded=0;" edge="1" parent="-yWKr1vlHTwKiEqfa3xT-59">
          <mxGeometry width="50" height="50" relative="1" as="geometry">
            <mxPoint x="220" y="100" as="sourcePoint" />
            <mxPoint x="260" y="60" as="targetPoint" />
          </mxGeometry>
        </mxCell>
        <mxCell id="-yWKr1vlHTwKiEqfa3xT-50" value="" style="endArrow=none;html=1;rounded=0;exitX=0;exitY=0;exitDx=0;exitDy=0;" edge="1" parent="-yWKr1vlHTwKiEqfa3xT-59" source="-yWKr1vlHTwKiEqfa3xT-53">
          <mxGeometry width="50" height="50" relative="1" as="geometry">
            <mxPoint x="110" y="110" as="sourcePoint" />
            <mxPoint x="70" y="70" as="targetPoint" />
          </mxGeometry>
        </mxCell>
        <mxCell id="-yWKr1vlHTwKiEqfa3xT-51" value="" style="endArrow=none;html=1;rounded=0;" edge="1" parent="-yWKr1vlHTwKiEqfa3xT-59">
          <mxGeometry width="50" height="50" relative="1" as="geometry">
            <mxPoint x="60" y="200" as="sourcePoint" />
            <mxPoint x="100" y="160" as="targetPoint" />
          </mxGeometry>
        </mxCell>
        <mxCell id="-yWKr1vlHTwKiEqfa3xT-52" value="" style="endArrow=none;html=1;rounded=0;" edge="1" parent="-yWKr1vlHTwKiEqfa3xT-59" source="-yWKr1vlHTwKiEqfa3xT-56">
          <mxGeometry width="50" height="50" relative="1" as="geometry">
            <mxPoint x="250" y="200" as="sourcePoint" />
            <mxPoint x="220" y="160" as="targetPoint" />
          </mxGeometry>
        </mxCell>
        <mxCell id="-yWKr1vlHTwKiEqfa3xT-54" value="&lt;font style=&quot;font-size: 15px;&quot;&gt;First Name&lt;/font&gt;" style="ellipse;whiteSpace=wrap;html=1;" vertex="1" parent="-yWKr1vlHTwKiEqfa3xT-59">
          <mxGeometry x="210" width="120" height="80" as="geometry" />
        </mxCell>
        <mxCell id="-yWKr1vlHTwKiEqfa3xT-55" value="&lt;font style=&quot;font-size: 15px;&quot;&gt;Last Name&lt;/font&gt;" style="ellipse;whiteSpace=wrap;html=1;" vertex="1" parent="-yWKr1vlHTwKiEqfa3xT-59">
          <mxGeometry y="180" width="120" height="80" as="geometry" />
        </mxCell>
        <mxCell id="-yWKr1vlHTwKiEqfa3xT-56" value="&lt;font style=&quot;font-size: 15px;&quot;&gt;Position&lt;/font&gt;" style="ellipse;whiteSpace=wrap;html=1;movable=1;resizable=1;rotatable=1;deletable=1;editable=1;locked=0;connectable=1;" vertex="1" parent="-yWKr1vlHTwKiEqfa3xT-59">
          <mxGeometry x="210" y="180" width="120" height="80" as="geometry" />
        </mxCell>
        <mxCell id="-yWKr1vlHTwKiEqfa3xT-58" value="" style="endArrow=none;html=1;rounded=0;exitX=0;exitY=0;exitDx=0;exitDy=0;" edge="1" parent="-yWKr1vlHTwKiEqfa3xT-59" source="-yWKr1vlHTwKiEqfa3xT-48" target="-yWKr1vlHTwKiEqfa3xT-53">
          <mxGeometry width="50" height="50" relative="1" as="geometry">
            <mxPoint x="100" y="100" as="sourcePoint" />
            <mxPoint x="70" y="70" as="targetPoint" />
          </mxGeometry>
        </mxCell>
        <mxCell id="-yWKr1vlHTwKiEqfa3xT-53" value="&lt;font style=&quot;font-size: 15px;&quot;&gt;&lt;u&gt;Librarian_ID&lt;/u&gt;&lt;/font&gt;" style="ellipse;whiteSpace=wrap;html=1;" vertex="1" parent="-yWKr1vlHTwKiEqfa3xT-59">
          <mxGeometry width="120" height="80" as="geometry" />
        </mxCell>
        <mxCell id="-yWKr1vlHTwKiEqfa3xT-62" value="" style="group" vertex="1" connectable="0" parent="1">
          <mxGeometry x="140" y="145" width="370" height="300" as="geometry" />
        </mxCell>
        <mxCell id="-yWKr1vlHTwKiEqfa3xT-3" value="&lt;u&gt;&lt;font style=&quot;font-size: 15px;&quot;&gt;Students_ID&lt;/font&gt;&lt;/u&gt;" style="ellipse;whiteSpace=wrap;html=1;" vertex="1" parent="-yWKr1vlHTwKiEqfa3xT-62">
          <mxGeometry y="40" width="120" height="80" as="geometry" />
        </mxCell>
        <mxCell id="-yWKr1vlHTwKiEqfa3xT-9" value="&lt;font style=&quot;font-size: 15px;&quot;&gt;Course&lt;/font&gt;" style="ellipse;whiteSpace=wrap;html=1;" vertex="1" parent="-yWKr1vlHTwKiEqfa3xT-62">
          <mxGeometry x="10" y="220" width="120" height="80" as="geometry" />
        </mxCell>
        <mxCell id="-yWKr1vlHTwKiEqfa3xT-60" value="" style="group" vertex="1" connectable="0" parent="-yWKr1vlHTwKiEqfa3xT-62">
          <mxGeometry x="70" width="300" height="300" as="geometry" />
        </mxCell>
        <mxCell id="-yWKr1vlHTwKiEqfa3xT-1" value="&lt;font style=&quot;font-size: 15px;&quot;&gt;STUDENTS&lt;/font&gt;" style="rounded=0;whiteSpace=wrap;html=1;" vertex="1" parent="-yWKr1vlHTwKiEqfa3xT-60">
          <mxGeometry x="40" y="130" width="120" height="60" as="geometry" />
        </mxCell>
        <mxCell id="-yWKr1vlHTwKiEqfa3xT-2" value="" style="endArrow=none;html=1;rounded=0;entryX=0;entryY=0;entryDx=0;entryDy=0;" edge="1" parent="-yWKr1vlHTwKiEqfa3xT-60" target="-yWKr1vlHTwKiEqfa3xT-1">
          <mxGeometry width="50" height="50" relative="1" as="geometry">
            <mxPoint y="100" as="sourcePoint" />
            <mxPoint x="20" y="110" as="targetPoint" />
            <Array as="points" />
          </mxGeometry>
        </mxCell>
        <mxCell id="-yWKr1vlHTwKiEqfa3xT-4" value="" style="endArrow=none;html=1;rounded=0;entryX=0.5;entryY=1;entryDx=0;entryDy=0;" edge="1" parent="-yWKr1vlHTwKiEqfa3xT-60">
          <mxGeometry width="50" height="50" relative="1" as="geometry">
            <mxPoint x="99.5" y="130" as="sourcePoint" />
            <mxPoint x="99.5" y="50" as="targetPoint" />
          </mxGeometry>
        </mxCell>
        <mxCell id="-yWKr1vlHTwKiEqfa3xT-5" value="&lt;font style=&quot;font-size: 15px;&quot;&gt;First Name&lt;/font&gt;" style="ellipse;whiteSpace=wrap;html=1;" vertex="1" parent="-yWKr1vlHTwKiEqfa3xT-60">
          <mxGeometry x="40" width="120" height="80" as="geometry" />
        </mxCell>
        <mxCell id="-yWKr1vlHTwKiEqfa3xT-6" value="" style="endArrow=none;html=1;rounded=0;" edge="1" parent="-yWKr1vlHTwKiEqfa3xT-60">
          <mxGeometry width="50" height="50" relative="1" as="geometry">
            <mxPoint x="160" y="130" as="sourcePoint" />
            <mxPoint x="210" y="90" as="targetPoint" />
          </mxGeometry>
        </mxCell>
        <mxCell id="-yWKr1vlHTwKiEqfa3xT-7" value="&lt;font style=&quot;font-size: 15px;&quot;&gt;Last Name&lt;/font&gt;" style="ellipse;whiteSpace=wrap;html=1;" vertex="1" parent="-yWKr1vlHTwKiEqfa3xT-60">
          <mxGeometry x="180" y="20" width="120" height="80" as="geometry" />
        </mxCell>
        <mxCell id="-yWKr1vlHTwKiEqfa3xT-8" value="" style="endArrow=none;html=1;rounded=0;exitX=0.692;exitY=0.002;exitDx=0;exitDy=0;exitPerimeter=0;" edge="1" parent="-yWKr1vlHTwKiEqfa3xT-60" source="-yWKr1vlHTwKiEqfa3xT-9">
          <mxGeometry width="50" height="50" relative="1" as="geometry">
            <mxPoint y="230" as="sourcePoint" />
            <mxPoint x="40" y="190" as="targetPoint" />
          </mxGeometry>
        </mxCell>
        <mxCell id="-yWKr1vlHTwKiEqfa3xT-10" value="" style="endArrow=none;html=1;rounded=0;" edge="1" parent="-yWKr1vlHTwKiEqfa3xT-60">
          <mxGeometry width="50" height="50" relative="1" as="geometry">
            <mxPoint x="180" y="230" as="sourcePoint" />
            <mxPoint x="160" y="190" as="targetPoint" />
          </mxGeometry>
        </mxCell>
        <mxCell id="-yWKr1vlHTwKiEqfa3xT-11" value="&lt;font style=&quot;font-size: 15px;&quot;&gt;Year Level&lt;/font&gt;" style="ellipse;whiteSpace=wrap;html=1;" vertex="1" parent="-yWKr1vlHTwKiEqfa3xT-60">
          <mxGeometry x="150" y="220" width="120" height="80" as="geometry" />
        </mxCell>
        <mxCell id="-yWKr1vlHTwKiEqfa3xT-63" value="" style="group" vertex="1" connectable="0" parent="1">
          <mxGeometry x="910" y="100" width="380" height="400" as="geometry" />
        </mxCell>
        <mxCell id="-yWKr1vlHTwKiEqfa3xT-25" value="&lt;font style=&quot;font-size: 18px;&quot;&gt;Book&lt;/font&gt;" style="rounded=0;whiteSpace=wrap;html=1;" vertex="1" parent="-yWKr1vlHTwKiEqfa3xT-63">
          <mxGeometry x="120" y="170" width="120" height="60" as="geometry" />
        </mxCell>
        <mxCell id="-yWKr1vlHTwKiEqfa3xT-26" value="" style="endArrow=none;html=1;rounded=0;" edge="1" parent="-yWKr1vlHTwKiEqfa3xT-63">
          <mxGeometry width="50" height="50" relative="1" as="geometry">
            <mxPoint x="120" y="170" as="sourcePoint" />
            <mxPoint x="80" y="120" as="targetPoint" />
          </mxGeometry>
        </mxCell>
        <mxCell id="-yWKr1vlHTwKiEqfa3xT-27" value="" style="endArrow=none;html=1;rounded=0;" edge="1" parent="-yWKr1vlHTwKiEqfa3xT-63">
          <mxGeometry width="50" height="50" relative="1" as="geometry">
            <mxPoint x="240" y="170" as="sourcePoint" />
            <mxPoint x="290" y="120" as="targetPoint" />
          </mxGeometry>
        </mxCell>
        <mxCell id="-yWKr1vlHTwKiEqfa3xT-28" value="" style="endArrow=none;html=1;rounded=0;" edge="1" parent="-yWKr1vlHTwKiEqfa3xT-63">
          <mxGeometry width="50" height="50" relative="1" as="geometry">
            <mxPoint x="179.57999999999993" y="170" as="sourcePoint" />
            <mxPoint x="180" y="80" as="targetPoint" />
            <Array as="points">
              <mxPoint x="179.57999999999993" y="120" />
            </Array>
          </mxGeometry>
        </mxCell>
        <mxCell id="-yWKr1vlHTwKiEqfa3xT-29" value="&lt;u&gt;&lt;font style=&quot;font-size: 15px;&quot;&gt;Book_ID&lt;/font&gt;&lt;/u&gt;" style="ellipse;whiteSpace=wrap;html=1;" vertex="1" parent="-yWKr1vlHTwKiEqfa3xT-63">
          <mxGeometry y="50" width="120" height="80" as="geometry" />
        </mxCell>
        <mxCell id="-yWKr1vlHTwKiEqfa3xT-30" value="&lt;font style=&quot;font-size: 15px;&quot;&gt;Title&lt;/font&gt;" style="ellipse;whiteSpace=wrap;html=1;" vertex="1" parent="-yWKr1vlHTwKiEqfa3xT-63">
          <mxGeometry x="120" width="120" height="80" as="geometry" />
        </mxCell>
        <mxCell id="-yWKr1vlHTwKiEqfa3xT-31" value="&lt;font style=&quot;font-size: 15px;&quot;&gt;Author&lt;/font&gt;" style="ellipse;whiteSpace=wrap;html=1;" vertex="1" parent="-yWKr1vlHTwKiEqfa3xT-63">
          <mxGeometry x="240" y="40" width="120" height="80" as="geometry" />
        </mxCell>
        <mxCell id="-yWKr1vlHTwKiEqfa3xT-32" value="" style="endArrow=none;html=1;rounded=0;" edge="1" parent="-yWKr1vlHTwKiEqfa3xT-63">
          <mxGeometry width="50" height="50" relative="1" as="geometry">
            <mxPoint x="80" y="270" as="sourcePoint" />
            <mxPoint x="120" y="230" as="targetPoint" />
          </mxGeometry>
        </mxCell>
        <mxCell id="-yWKr1vlHTwKiEqfa3xT-33" value="Category" style="ellipse;whiteSpace=wrap;html=1;" vertex="1" parent="-yWKr1vlHTwKiEqfa3xT-63">
          <mxGeometry x="10" y="270" width="120" height="80" as="geometry" />
        </mxCell>
        <mxCell id="-yWKr1vlHTwKiEqfa3xT-34" value="" style="endArrow=none;html=1;rounded=0;" edge="1" parent="-yWKr1vlHTwKiEqfa3xT-63">
          <mxGeometry width="50" height="50" relative="1" as="geometry">
            <mxPoint x="270" y="280" as="sourcePoint" />
            <mxPoint x="240" y="230" as="targetPoint" />
          </mxGeometry>
        </mxCell>
        <mxCell id="-yWKr1vlHTwKiEqfa3xT-35" value="&lt;font style=&quot;font-size: 15px;&quot;&gt;Status (Available/Barrowed)&lt;/font&gt;" style="ellipse;whiteSpace=wrap;html=1;" vertex="1" parent="-yWKr1vlHTwKiEqfa3xT-63">
          <mxGeometry x="230" y="270" width="150" height="80" as="geometry" />
        </mxCell>
        <mxCell id="-yWKr1vlHTwKiEqfa3xT-36" value="" style="endArrow=none;html=1;rounded=0;" edge="1" parent="-yWKr1vlHTwKiEqfa3xT-63">
          <mxGeometry width="50" height="50" relative="1" as="geometry">
            <mxPoint x="179.57999999999993" y="320" as="sourcePoint" />
            <mxPoint x="179.57999999999993" y="230" as="targetPoint" />
          </mxGeometry>
        </mxCell>
        <mxCell id="-yWKr1vlHTwKiEqfa3xT-37" value="&lt;font style=&quot;font-size: 15px;&quot;&gt;Year Published&lt;/font&gt;" style="ellipse;whiteSpace=wrap;html=1;" vertex="1" parent="-yWKr1vlHTwKiEqfa3xT-63">
          <mxGeometry x="120" y="320" width="120" height="80" as="geometry" />
        </mxCell>
        <mxCell id="-yWKr1vlHTwKiEqfa3xT-47" value="" style="fontSize=12;html=1;endArrow=ERzeroToMany;startArrow=ERmandOne;rounded=0;exitX=0;exitY=0.5;exitDx=0;exitDy=0;" edge="1" parent="1" source="-yWKr1vlHTwKiEqfa3xT-25">
          <mxGeometry width="100" height="100" relative="1" as="geometry">
            <mxPoint x="1010" y="302.5" as="sourcePoint" />
            <mxPoint x="780" y="300" as="targetPoint" />
          </mxGeometry>
        </mxCell>
      </root>
    </mxGraphModel>
  </diagram>
</mxfile>
